<svg xmlns="http://www.w3.org/2000/svg" viewBox="0 0 960 480" role="img" font-family="ui-sans-serif, system-ui, -apple-system, 'Segoe UI', sans-serif" aria-labelledby="title desc">
  <title id="title">The unified outbound mail layer</title>
  <desc id="desc">Before: four self-hosted apps (Hugo contact form, Comentario, Gitea, cron job) each integrate independently with Postmark. After: all four point at Posthorn, which talks to Postmark once.</desc>

  <defs>
    <marker id="arrow-ink" viewBox="0 0 10 10" refX="9" refY="5" markerWidth="7" markerHeight="7" orient="auto">
      <path d="M 0 0 L 10 5 L 0 10 Z" fill="#17181c"/>
    </marker>
    <marker id="arrow-brass" viewBox="0 0 10 10" refX="9" refY="5" markerWidth="7" markerHeight="7" orient="auto">
      <path d="M 0 0 L 10 5 L 0 10 Z" fill="#d4a300"/>
    </marker>
  </defs>

  <style>
    .panel-title { font-size: 18px; font-weight: 700; fill: #17181c; }
    .app-text    { font-size: 14px; fill: #17181c; }
    .app-sub     { font-size: 11px; fill: #545861; }
    .dest-text   { font-size: 14px; font-weight: 700; fill: #17181c; }
    .footnote    { font-size: 12px; fill: #545861; }
    .divider     { stroke: #ece6d4; stroke-width: 1; }
    .app-box     { fill: #fdfaf3; stroke: #17181c; stroke-width: 1.5; }
    .provider    { fill: #d4a300; stroke: #17181c; stroke-width: 2; }
    .gateway     { fill: #17181c; stroke: #d4a300; stroke-width: 2; }
    .gateway-text{ font-size: 15px; font-weight: 700; fill: #fdfaf3; letter-spacing: 0.02em; }
    .arrow-ink   { stroke: #17181c; stroke-width: 1.5; fill: none; }
    .arrow-brass { stroke: #d4a300; stroke-width: 2.5; fill: none; }
  </style>

  <!-- ─────────────────────── BEFORE PANEL ─────────────────────── -->
  <g transform="translate(0,0)">
    <text x="220" y="28" class="panel-title" text-anchor="middle">Before — four separate integrations</text>

    <!-- App boxes (left column) -->
    <g>
      <!-- Hugo contact form -->
      <rect x="20" y="70" width="180" height="56" rx="8" class="app-box"/>
      <text x="110" y="93" text-anchor="middle" class="app-text">Hugo contact form</text>
      <text x="110" y="111" text-anchor="middle" class="app-sub">static site · HTTP form</text>

      <!-- Comentario -->
      <rect x="20" y="146" width="180" height="56" rx="8" class="app-box"/>
      <text x="110" y="169" text-anchor="middle" class="app-text">Comentario</text>
      <text x="110" y="187" text-anchor="middle" class="app-sub">Docker · SMTP</text>

      <!-- Gitea -->
      <rect x="20" y="222" width="180" height="56" rx="8" class="app-box"/>
      <text x="110" y="245" text-anchor="middle" class="app-text">Gitea</text>
      <text x="110" y="263" text-anchor="middle" class="app-sub">VPS · SMTP</text>

      <!-- Cron job -->
      <rect x="20" y="298" width="180" height="56" rx="8" class="app-box"/>
      <text x="110" y="321" text-anchor="middle" class="app-text">Cron job</text>
      <text x="110" y="339" text-anchor="middle" class="app-sub">VPS · HTTP API</text>
    </g>

    <!-- Postmark destination -->
    <g>
      <rect x="290" y="184" width="130" height="58" rx="10" class="provider"/>
      <text x="355" y="218" text-anchor="middle" class="dest-text">Postmark</text>
    </g>

    <!-- Arrows from each app to Postmark -->
    <g>
      <path d="M 200 98  C 240 98,  255 210, 290 210" class="arrow-ink" marker-end="url(#arrow-ink)"/>
      <path d="M 200 174 C 240 174, 260 213, 290 213" class="arrow-ink" marker-end="url(#arrow-ink)"/>
      <path d="M 200 250 C 240 250, 260 215, 290 215" class="arrow-ink" marker-end="url(#arrow-ink)"/>
      <path d="M 200 326 C 240 326, 255 220, 290 220" class="arrow-ink" marker-end="url(#arrow-ink)"/>
    </g>

    <!-- Footnote -->
    <g transform="translate(0, 386)">
      <text x="220" y="0"  text-anchor="middle" class="footnote">Four credentials to rotate.</text>
      <text x="220" y="18" text-anchor="middle" class="footnote">Four retry policies, four log shapes,</text>
      <text x="220" y="36" text-anchor="middle" class="footnote">four mental models of "what does a 429 mean?"</text>
    </g>
  </g>

  <!-- Vertical divider between panels -->
  <line x1="478" y1="20" x2="478" y2="460" class="divider"/>

  <!-- ─────────────────────── AFTER PANEL ─────────────────────── -->
  <g transform="translate(480, 0)">
    <text x="240" y="28" class="panel-title" text-anchor="middle">After — one integration via Posthorn</text>

    <!-- App boxes (left column) -->
    <g>
      <rect x="20" y="70" width="180" height="56" rx="8" class="app-box"/>
      <text x="110" y="93" text-anchor="middle" class="app-text">Hugo contact form</text>
      <text x="110" y="111" text-anchor="middle" class="app-sub">static site · HTTP form</text>

      <rect x="20" y="146" width="180" height="56" rx="8" class="app-box"/>
      <text x="110" y="169" text-anchor="middle" class="app-text">Comentario</text>
      <text x="110" y="187" text-anchor="middle" class="app-sub">Docker · SMTP</text>

      <rect x="20" y="222" width="180" height="56" rx="8" class="app-box"/>
      <text x="110" y="245" text-anchor="middle" class="app-text">Gitea</text>
      <text x="110" y="263" text-anchor="middle" class="app-sub">VPS · SMTP</text>

      <rect x="20" y="298" width="180" height="56" rx="8" class="app-box"/>
      <text x="110" y="321" text-anchor="middle" class="app-text">Cron job</text>
      <text x="110" y="339" text-anchor="middle" class="app-sub">VPS · HTTP API</text>
    </g>

    <!-- Posthorn gateway -->
    <g>
      <rect x="240" y="184" width="120" height="58" rx="10" class="gateway"/>
      <text x="300" y="218" text-anchor="middle" class="gateway-text">Posthorn</text>
    </g>

    <!-- Arrows from apps to Posthorn (ink) -->
    <g>
      <path d="M 200 98  C 220 98,  220 210, 240 210" class="arrow-ink" marker-end="url(#arrow-ink)"/>
      <path d="M 200 174 C 220 174, 225 213, 240 213" class="arrow-ink" marker-end="url(#arrow-ink)"/>
      <path d="M 200 250 C 220 250, 225 215, 240 215" class="arrow-ink" marker-end="url(#arrow-ink)"/>
      <path d="M 200 326 C 220 326, 220 220, 240 220" class="arrow-ink" marker-end="url(#arrow-ink)"/>
    </g>

    <!-- Posthorn → Postmark (brass) -->
    <g>
      <rect x="400" y="184" width="60" height="58" rx="10" class="provider"/>
      <text x="430" y="218" text-anchor="middle" class="dest-text" font-size="12">Postmark</text>
      <path d="M 360 213 L 400 213" class="arrow-brass" marker-end="url(#arrow-brass)"/>
    </g>

    <!-- Footnote -->
    <g transform="translate(0, 386)">
      <text x="240" y="0"  text-anchor="middle" class="footnote">One credential. One retry policy.</text>
      <text x="240" y="18" text-anchor="middle" class="footnote">One log stream with submission IDs.</text>
      <text x="240" y="36" text-anchor="middle" class="footnote">Switch providers with a one-line config change.</text>
    </g>
  </g>
</svg>
